<svg height="511pt" viewBox="0 -3 511.99991 511" width="511pt" xmlns="http://www.w3.org/2000/svg"><path d="m268.824219 506.34375c-134.085938 0-243.171875-109.085938-243.171875-243.175781 0-134.085938 109.085937-243.171875 243.171875-243.171875 134.089843 0 243.175781 109.085937 243.175781 243.171875 0 134.089843-109.085938 243.175781-243.175781 243.175781zm0 0" fill="#26bed3"/><path d="m268.824219 444.78125c-100.140625 0-181.609375-81.472656-181.609375-181.613281s81.46875-181.609375 181.609375-181.609375 181.613281 81.46875 181.613281 181.609375-81.472656 181.613281-181.613281 181.613281zm0 0" fill="#e5e8ec"/><path d="m268.824219 383.21875c-66.195313 0-120.046875-53.855469-120.046875-120.050781 0-66.195313 53.851562-120.046875 120.046875-120.046875 66.195312 0 120.050781 53.851562 120.050781 120.046875 0 66.195312-53.855469 120.050781-120.050781 120.050781zm0 0" fill="#7e7ce8"/><path d="m327.3125 263.167969c0 32.300781-26.1875 58.488281-58.488281 58.488281s-58.484375-26.1875-58.484375-58.488281 26.183594-58.484375 58.484375-58.484375 58.488281 26.183594 58.488281 58.484375zm0 0" fill="#e5e8ec"/><path d="m137.03125 72.082031c0-11.753906-4.667969-23.023437-12.980469-31.335937l-37.382812-37.386719c-6.113281-6.109375-16.5625-1.78125-16.5625 6.859375v31.367188l13.898437 42.917968 53.027344 22.734375zm0 0" fill="#ffe967"/><path d="m71.582031 137.53125c-11.753906 0-23.023437-4.667969-31.335937-12.980469l-37.386719-37.382812c-6.109375-6.113281-1.78125-16.5625 6.859375-16.5625h31.367188l42.917968 13.898437 22.734375 53.027344zm0 0" fill="#ffe967"/><path d="m271.328125 242.804688-201.222656-201.21875c-4.34375-4.34375-11.386719-4.34375-15.734375 0l-13.285156 13.285156c-4.34375 4.347656-4.34375 11.390625 0 15.734375l201.566406 201.570312c8.191406 8.1875 21.578125 8.011719 29.542968-.539062 7.582032-8.144531 7-20.960938-.867187-28.832031zm0 0" fill="#ffb44f"/></svg>